<svg xmlns="http://www.w3.org/2000/svg" viewBox="0 0 51.83 37.42"><defs><style>.cls-1{fill:#a9bf04;}.cls-2{fill:#003a59;}</style></defs><g id="Layer_2" data-name="Layer 2"><g id="Layer_1-2" data-name="Layer 1"><polygon class="cls-1" points="20.51 22.14 20.51 33.69 14.87 24.46 11.1 18.31 9.22 15.23 9.22 3.3 11.1 6.44 14.87 12.72 20.51 22.14"/><path class="cls-2" d="M7.34,0V37.42H7.27A7.28,7.28,0,0,1,0,30.12V7.3A7.28,7.28,0,0,1,7.27,0Z"/><path class="cls-2" d="M29.55,0V30a7.28,7.28,0,0,1-7.27,7.3h0V0Z"/><path class="cls-2" d="M29.26,0H40.74a11.1,11.1,0,0,1,11.1,11.1v0a11.1,11.1,0,0,1-11.1,11.1H29.26a0,0,0,0,1,0,0V0A0,0,0,0,1,29.26,0Z"/></g></g></svg>