<svg xmlns="http://www.w3.org/2000/svg" version="1.1" xmlns:xlink="http://www.w3.org/1999/xlink" xmlns:svgjs="http://svgjs.com/svgjs" width="1440" height="560" preserveAspectRatio="none" viewBox="0 0 1440 560"><g mask="url(&quot;#SvgjsMask1007&quot;)" fill="none"><rect width="1440" height="560" x="0" y="0" fill="#0e2a47"></rect><path d="M1138.84 198.03L1156.52 198.03L1156.52 215.71L1138.84 215.71z" stroke="#037b0b"></path><path d="M858.13 247.29 a37.75 37.75 0 1 0 75.5 0 a37.75 37.75 0 1 0 -75.5 0z" stroke="#037b0b"></path><path d="M1214.58 76.54L1250.4 76.54L1250.4 112.36L1214.58 112.36z" stroke="#037b0b"></path><path d="M1233.99 224.4a39.59 39.59 0 1 0 74.78 26.05z" stroke="#e73635"></path><path d="M33.36 518.88L44.32 518.88L44.32 560.87L33.36 560.87z" fill="#d3b714"></path><path d="M1066.14 281.58L1097.52 281.58L1097.52 314.08L1066.14 314.08z" stroke="#e73635"></path><path d="M413.24 503.25a17.85 17.85 0 1 0 30.08-19.22z" stroke="#e73635"></path><path d="M1180.92 428.5 a4.45 4.45 0 1 0 8.9 0 a4.45 4.45 0 1 0 -8.9 0z" fill="#d3b714"></path><path d="M535.21 435.46a22.17 22.17 0 1 0 34.71-27.59z" stroke="#e73635"></path><path d="M61.15 434.95L90.04 434.95L90.04 466.67L61.15 466.67z" fill="#037b0b"></path><path d="M735.71 280.3a4.7 4.7 0 1 0 4.02-8.5z" stroke="#d3b714"></path><path d="M166.57 175.12a21.37 21.37 0 1 0 8.24-41.93z" fill="#037b0b"></path><path d="M599.15 327.54 a45.24 45.24 0 1 0 90.48 0 a45.24 45.24 0 1 0 -90.48 0z" fill="#e73635"></path><path d="M1345.95 209.5a41.94 41.94 0 1 0-79.35 27.19z" fill="#037b0b"></path><path d="M1368.45 222.78L1391.81 222.78L1391.81 256.92L1368.45 256.92z" fill="#e73635"></path><path d="M1118.32 174.23a46.33 46.33 0 1 0-19.27 90.64z" fill="#e73635"></path><path d="M1107.3 276.67a28.34 28.34 0 1 0-9.48-55.88z" fill="#e73635"></path><path d="M954.13 212.45L961.43 212.45L961.43 219.75L954.13 219.75z" stroke="#d3b714"></path><path d="M527.28 77.49 a15.92 15.92 0 1 0 31.84 0 a15.92 15.92 0 1 0 -31.84 0z" fill="#037b0b"></path><path d="M1325.32 36.12a15.31 15.31 0 1 0-21.75-21.56z" stroke="#d3b714"></path><path d="M105.95 131.8L121.17 131.8L121.17 170.09L105.95 170.09z" fill="#e73635"></path><path d="M228.84 23.97L256.08 23.97L256.08 51.21L228.84 51.21z" stroke="#e73635"></path><path d="M1166.29 400.92 a31.79 31.79 0 1 0 63.58 0 a31.79 31.79 0 1 0 -63.58 0z" fill="#e73635"></path><path d="M1433.43 278.76L1489.41 278.76L1489.41 327.03L1433.43 327.03z" stroke="#037b0b"></path><path d="M589.02 22.56 a9.52 9.52 0 1 0 19.04 0 a9.52 9.52 0 1 0 -19.04 0z" stroke="#d3b714"></path><path d="M494.75 9a7.39 7.39 0 1 0-1-14.74z" stroke="#d3b714"></path><path d="M599.41 552.97L612.29 552.97L612.29 565.85L599.41 565.85z" fill="#e73635"></path><path d="M1303.06 434.94a39.99 39.99 0 1 0 77.9 18.08z" fill="#d3b714"></path><path d="M5.62 539.88 a26.02 26.02 0 1 0 52.04 0 a26.02 26.02 0 1 0 -52.04 0z" fill="#e73635"></path><path d="M608.81 209.35L629 209.35L629 229.54L608.81 229.54z" fill="#e73635"></path><path d="M778.67 374.43L787.19 374.43L787.19 409.18L778.67 409.18z" fill="#e73635"></path><path d="M230.82 161.65L282.38 161.65L282.38 213.21L230.82 213.21z" fill="#037b0b"></path><path d="M536.65 123.82a18.97 18.97 0 1 0 5.68-37.51z" fill="#e73635"></path></g><defs><mask id="SvgjsMask1007"><rect width="1440" height="560" fill="#ffffff"></rect></mask></defs></svg>